<?xml version="1.0" encoding="UTF-8"?>
<!-- Generator: Adobe Illustrator 15.0.0, SVG Export Plug-In . SVG Version: 6.00 Build 0)  -->
<!DOCTYPE svg PUBLIC "-//W3C//DTD SVG 1.1//EN" "http://www.w3.org/Graphics/SVG/1.1/DTD/svg11.dtd">
<svg version="1.1" id="Layer_1" xmlns="http://www.w3.org/2000/svg" xmlns:xlink="http://www.w3.org/1999/xlink" x="0px" y="0px" width="60px" height="60px" viewBox="213.5 213.5 60 60" enable-background="new 213.5 213.5 60 60" xml:space="preserve">
<g>
	<path fill="#FFFFFF" d="M243.91,245.113c-0.066-0.014-0.133-0.018-0.199-0.008c-0.662-0.076-1.162-0.637-1.163-1.302   c0-0.32-0.259-0.578-0.578-0.578s-0.578,0.258-0.578,0.578c0.001,1.113,0.746,2.087,1.819,2.382v0.578   c0,0.318,0.257,0.578,0.578,0.578c0.318,0,0.578-0.26,0.578-0.578v-0.543c1.238-0.26,2.08-1.414,1.949-2.671   c-0.131-1.259-1.19-2.215-2.455-2.215c-0.725,0-1.313-0.588-1.313-1.313s0.588-1.313,1.313-1.313c0.725,0,1.313,0.588,1.313,1.313   c0,0.319,0.259,0.578,0.578,0.578s0.578-0.259,0.578-0.578c-0.002-1.168-0.82-2.176-1.963-2.417v-0.526   c0-0.319-0.26-0.578-0.578-0.578c-0.32,0-0.578,0.259-0.578,0.578v0.562c-1.194,0.326-1.962,1.484-1.797,2.71   c0.164,1.226,1.21,2.141,2.447,2.141c0.715,0,1.299,0.573,1.312,1.288C245.186,244.492,244.624,245.088,243.91,245.113z"/>
	<path fill="#FFFFFF" d="M235.477,241.957c0,4.631,3.754,8.385,8.385,8.385s8.385-3.754,8.385-8.385   c0-4.631-3.754-8.385-8.385-8.385C239.233,233.577,235.482,237.328,235.477,241.957z M243.861,234.728   c3.992,0,7.229,3.236,7.229,7.229c0,3.993-3.236,7.229-7.229,7.229s-7.229-3.236-7.229-7.229   C236.637,237.966,239.871,234.732,243.861,234.728z"/>
	<path fill="#FFFFFF" d="M255.096,251.768l-4.529,2.139c-0.625-1.162-1.824-1.902-3.145-1.939l-4.181-0.115   c-0.663-0.02-1.312-0.188-1.901-0.49l-0.425-0.221c-2.179-1.137-4.775-1.133-6.952,0.008l0.026-0.965   c0.009-0.32-0.243-0.586-0.562-0.594l-4.585-0.127c-0.319-0.008-0.585,0.244-0.594,0.563l-0.277,10.063   c-0.009,0.318,0.243,0.586,0.563,0.594l4.585,0.127h0.016c0.313,0,0.569-0.25,0.578-0.563l0.013-0.482l1.191-0.637   c0.467-0.252,1.014-0.313,1.525-0.168l7.112,1.996c0.014,0.004,0.025,0.008,0.039,0.01c0.514,0.107,1.037,0.162,1.563,0.162   c1.112,0,2.211-0.24,3.223-0.703c0.024-0.012,0.049-0.025,0.072-0.041l10.313-6.67c0.258-0.166,0.34-0.504,0.189-0.771   C258.188,251.584,256.49,251.066,255.096,251.768z M229.143,259.541l0.246-8.906l3.429,0.096l-0.245,8.906L229.143,259.541z    M247.857,259.391c-1.256,0.566-2.658,0.723-4.008,0.447l-7.095-1.992c-0.798-0.225-1.653-0.131-2.383,0.262l-0.609,0.326   l0.163-5.922c1.929-1.283,4.403-1.416,6.457-0.344l0.425,0.219c0.744,0.385,1.564,0.596,2.401,0.621l4.181,0.115   c1.174,0.033,2.172,0.869,2.41,2.021l-6.229-0.174c-0.32-0.008-0.585,0.244-0.594,0.563c-0.009,0.32,0.243,0.586,0.563,0.596   l6.873,0.188h0.016c0.313,0,0.569-0.25,0.578-0.563c0.007-0.25-0.012-0.502-0.057-0.75l4.646-2.195   c0.004-0.002,0.009-0.004,0.014-0.006c0.658-0.334,1.455-0.223,1.998,0.279L247.857,259.391z"/>
	<path fill="#FFFFFF" d="M244.439,231.946v-5.493c0-0.319-0.26-0.579-0.578-0.579c-0.32,0-0.578,0.259-0.578,0.579v5.493   c0,0.319,0.257,0.578,0.578,0.578C244.18,232.524,244.439,232.265,244.439,231.946z"/>
	<path fill="#FFFFFF" d="M248.775,231.946v-2.602c0-0.319-0.258-0.578-0.578-0.578c-0.318,0-0.578,0.259-0.578,0.578v2.602   c0,0.319,0.26,0.578,0.578,0.578C248.518,232.524,248.775,232.265,248.775,231.946z"/>
	<path fill="#FFFFFF" d="M240.103,231.946v-2.602c0-0.319-0.259-0.578-0.578-0.578c-0.319,0-0.579,0.259-0.579,0.578v2.602   c0,0.319,0.259,0.578,0.579,0.578C239.844,232.524,240.103,232.265,240.103,231.946z"/>
</g>
</svg>