<?xml version="1.0" encoding="UTF-8"?>
<!-- Generator: Adobe Illustrator 15.0.0, SVG Export Plug-In . SVG Version: 6.00 Build 0)  -->
<!DOCTYPE svg PUBLIC "-//W3C//DTD SVG 1.1//EN" "http://www.w3.org/Graphics/SVG/1.1/DTD/svg11.dtd">
<svg version="1.1" id="Capa_1" xmlns="http://www.w3.org/2000/svg" xmlns:xlink="http://www.w3.org/1999/xlink" x="0px" y="0px" width="60px" height="60px" viewBox="0 0 60 60" enable-background="new 0 0 60 60" xml:space="preserve">
<g>
	<path fill="#FFFFFF" d="M42.113,22.23H33.32l5.884-4.763c0.365-0.295,0.588-0.733,0.612-1.201c0.025-0.468-0.151-0.927-0.482-1.259   l-3.017-3.016c-0.332-0.332-0.791-0.508-1.258-0.483c-0.469,0.024-0.906,0.248-1.201,0.612l-3.747,4.627   c-0.184,0.227-0.148,0.56,0.079,0.743c0.226,0.183,0.559,0.148,0.743-0.078l3.746-4.627c0.107-0.134,0.263-0.213,0.435-0.223   c0.173-0.009,0.334,0.053,0.456,0.176l3.017,3.016c0.122,0.122,0.185,0.284,0.175,0.456c-0.009,0.173-0.088,0.327-0.223,0.436   L33,21.13c-0.096-0.524-0.337-0.999-0.682-1.377l3.113-3.113c0.205-0.206,0.205-0.54,0-0.746c-0.207-0.206-0.542-0.206-0.747,0   l-3.223,3.222c-0.364-0.175-0.772-0.272-1.202-0.272h-0.414l-5.442-6.723c-0.295-0.365-0.733-0.588-1.201-0.612   c-0.468-0.025-0.927,0.151-1.258,0.483l-3.016,3.016c-0.332,0.332-0.508,0.791-0.483,1.259c0.024,0.468,0.248,0.906,0.612,1.201   l5.885,4.763h-8.793c-0.914,0-1.657,0.743-1.657,1.657v5.645c0,0.729,0.474,1.35,1.129,1.57v14.798   c0,0.914,0.744,1.657,1.657,1.657h23.706c0.915,0,1.658-0.743,1.658-1.657V31.102c0.655-0.221,1.129-0.841,1.129-1.57v-5.645   C43.771,22.973,43.026,22.23,42.113,22.23L42.113,22.23z M31.989,21.629v0.601h-5.717v-0.601c0-0.954,0.776-1.729,1.729-1.729   h2.258C31.214,19.9,31.989,20.675,31.989,21.629z M30.86,46.5h-3.459V23.286h3.459V46.5z M19.5,16.21   c-0.009-0.172,0.053-0.334,0.175-0.456l3.016-3.016c0.122-0.123,0.284-0.185,0.457-0.176c0.172,0.01,0.327,0.088,0.436,0.223   l4.904,6.059h-0.486c-0.43,0-0.837,0.098-1.201,0.272l-3.223-3.222c-0.206-0.206-0.541-0.206-0.747,0   c-0.207,0.207-0.207,0.541,0,0.746l3.113,3.113c-0.346,0.378-0.587,0.853-0.682,1.377l-5.541-4.484   C19.588,16.537,19.509,16.383,19.5,16.21z M16.677,45.899V31.188h7.938c0.292,0,0.528-0.237,0.528-0.528   c0-0.292-0.236-0.528-0.528-0.528h-8.466c-0.332,0-0.601-0.27-0.601-0.601v-5.645c0-0.331,0.27-0.601,0.601-0.601h10.196V46.5   h-9.067C16.947,46.5,16.677,46.23,16.677,45.899z M40.983,46.5h-9.066V31.188h9.667v14.711C41.584,46.23,41.315,46.5,40.983,46.5z    M42.713,29.531c0,0.331-0.269,0.601-0.6,0.601H31.917v-6.846h10.196c0.331,0,0.6,0.27,0.6,0.601V29.531z"/>
</g>
</svg>