<?xml version="1.0" encoding="UTF-8"?>
<!-- Generator: Adobe Illustrator 15.0.0, SVG Export Plug-In . SVG Version: 6.00 Build 0)  -->
<!DOCTYPE svg PUBLIC "-//W3C//DTD SVG 1.1//EN" "http://www.w3.org/Graphics/SVG/1.1/DTD/svg11.dtd">
<svg version="1.1" id="Layer_1" xmlns="http://www.w3.org/2000/svg" xmlns:xlink="http://www.w3.org/1999/xlink" x="0px" y="0px" width="60px" height="60px" viewBox="0 0 60 60" enable-background="new 0 0 60 60" xml:space="preserve">
<path fill="#FFFFFF" d="M45.91,28.175l-0.958-3.93c0.262-0.057,0.458-0.295,0.458-0.581V23.03c0-1.375-1.092-2.495-2.433-2.495  h-4.364v-1.307c0-0.677-0.537-1.228-1.197-1.228H15.169c-0.66,0-1.197,0.551-1.197,1.228V30c0,0.328,0.259,0.594,0.579,0.594  c0.32,0,0.58-0.266,0.58-0.594V19.228c0-0.022,0.017-0.039,0.039-0.039h22.247c0.021,0,0.039,0.017,0.039,0.039V30  c0,0.328,0.259,0.594,0.579,0.594s0.58-0.266,0.58-0.594v-0.674h6.834c0,0,0.001,0,0.001,0s0.001,0,0.001,0  c0.841,0,1.555,0.567,1.8,1.346h-1.801c-0.32,0-0.58,0.267-0.58,0.595v1.267c0,1.026,0.814,1.862,1.815,1.862h0.657v2.613h-1.515  c-0.498-1.473-1.863-2.534-3.467-2.534s-2.97,1.062-3.467,2.534h-0.279v-4.475c0-0.328-0.259-0.593-0.579-0.593  s-0.58,0.265-0.58,0.593v4.475h-12.02c-0.498-1.473-1.864-2.535-3.467-2.535c-1.604,0-2.97,1.062-3.468,2.535h-3.33  c-0.021,0-0.039-0.017-0.039-0.039v-1.307h2.51c0.32,0,0.58-0.266,0.58-0.594c0-0.329-0.259-0.595-0.58-0.595H12.08  c-0.32,0-0.58,0.266-0.58,0.595c0,0.328,0.259,0.594,0.58,0.594h1.892v1.307c0,0.677,0.537,1.228,1.197,1.228h3.129  c0,0.014-0.001,0.026-0.001,0.04c0,2.075,1.646,3.762,3.669,3.762c2.023,0,3.669-1.688,3.669-3.762c0-0.013-0.001-0.026-0.001-0.04  h13.057c0,0.014-0.001,0.026-0.001,0.04c0,2.075,1.646,3.762,3.669,3.762s3.669-1.688,3.669-3.762c0-0.013,0-0.026-0.001-0.04h1.894  c0.32,0,0.58-0.266,0.58-0.594v-6.336C48.5,29.704,47.375,28.403,45.91,28.175z M38.613,21.724h4.364  c0.703,0,1.274,0.586,1.274,1.306v0.04h-5.639V21.724z M38.613,28.139v-3.881h5.148l0.946,3.881H38.613L38.613,28.139z   M21.967,40.813c-1.384,0-2.511-1.155-2.511-2.575c0-1.419,1.126-2.574,2.511-2.574c1.384,0,2.51,1.155,2.51,2.574  C24.477,39.658,23.351,40.813,21.967,40.813z M42.359,40.813c-1.384,0-2.51-1.155-2.51-2.575c0-1.419,1.126-2.574,2.51-2.574  s2.511,1.155,2.511,2.574C44.87,39.658,43.743,40.813,42.359,40.813z M47.341,33.208h-0.657c-0.362,0-0.656-0.302-0.656-0.673  v-0.673h1.313V33.208L47.341,33.208z"/>
<path fill="#FFFFFF" d="M21.967,37.01c-0.661,0-1.198,0.551-1.198,1.228c0,0.677,0.537,1.228,1.198,1.228  c0.66,0,1.197-0.551,1.197-1.228C23.164,37.561,22.627,37.01,21.967,37.01z"/>
<path fill="#FFFFFF" d="M42.359,37.01c-0.66,0-1.197,0.551-1.197,1.228c0,0.677,0.537,1.228,1.197,1.228  c0.661,0,1.197-0.551,1.197-1.228C43.556,37.561,43.02,37.01,42.359,37.01z"/>
<path fill="#FFFFFF" d="M35.562,34.476H26.91c-0.32,0-0.58,0.266-0.58,0.594s0.26,0.594,0.58,0.594h8.651  c0.32,0,0.58-0.266,0.58-0.594S35.881,34.476,35.562,34.476z"/>
<path fill="#FFFFFF" d="M20.73,31.941h-7.415c-0.32,0-0.58,0.265-0.58,0.593c0,0.329,0.259,0.595,0.58,0.595h7.415  c0.32,0,0.58-0.266,0.58-0.595C21.31,32.207,21.051,31.941,20.73,31.941z"/>
<path fill="#FFFFFF" d="M31.646,23.877c-0.226-0.232-0.593-0.232-0.819,0l-5.152,5.283l-2.68-2.749  c-0.226-0.232-0.593-0.232-0.819,0c-0.226,0.232-0.226,0.608,0,0.84l3.09,3.168c0.113,0.116,0.261,0.175,0.41,0.175  c0.148,0,0.296-0.059,0.41-0.175l5.562-5.703C31.872,24.486,31.872,24.109,31.646,23.877z"/>
</svg>